<svg xmlns="http://www.w3.org/2000/svg" xmlns:xlink="http://www.w3.org/1999/xlink" version="1.1" width="1000" height="1000" viewBox="0 0 1000 1000" xml:space="preserve">
<desc>Created with Fabric.js 3.5.0</desc>
<defs>
</defs>
<rect x="0" y="0" width="100%" height="100%" fill="none"/>
<g transform="matrix(7.6468 7.73 -7.73 7.6468 659.6547 501.6105)" id="Capa_1">
<path style="stroke: none; stroke-width: 1; stroke-dasharray: none; stroke-linecap: butt; stroke-dashoffset: 0; stroke-linejoin: miter; stroke-miterlimit: 4; is-custom-font: none; font-file-url: none; fill: rgb(134,151,203); fill-rule: nonzero; opacity: 1;" transform=" translate(-42.6883, -15.9863)" d="M 50.471 23.761 c 0.391 -0.391 1.023 -0.391 1.414 0 l 2.793 2.793 c 5.33 -6.035 5.33 -15.107 0 -21.142 l -2.793 2.793 c -0.195 0.195 -0.451 0.293 -0.707 0.293 S 50.666 8.4 50.471 8.204 c -0.391 -0.391 -0.391 -1.023 0 -1.414 l 2.793 -2.793 c -6.035 -5.33 -15.107 -5.33 -21.142 0 l 2.793 2.793 c 0.391 0.391 0.391 1.023 0 1.414 c -0.195 0.195 -0.451 0.293 -0.707 0.293 S 33.695 8.4 33.5 8.204 l -2.793 -2.793 c -5.551 6.284 -5.338 15.875 0.671 21.885 c 6.01 6.01 15.601 6.222 21.885 0.671 l -2.793 -2.793 C 50.08 24.784 50.08 24.152 50.471 23.761 z" stroke-linecap="round"/>
</g>
<g transform="matrix(7.6468 7.73 -7.73 7.6468 187.7133 357.7056)" id="Capa_1">
<line style="stroke: rgb(0,150,230); stroke-width: 2; stroke-dasharray: none; stroke-linecap: round; stroke-dashoffset: 0; stroke-linejoin: miter; stroke-miterlimit: 10; is-custom-font: none; font-file-url: none; fill: none; fill-rule: nonzero; opacity: 1;" x1="1.7545000000000002" y1="-1.7540000000000013" x2="-1.7545000000000002" y2="1.7540000000000013"/>
</g>
<g transform="matrix(7.6468 7.73 -7.73 7.6468 241.6777 499.3484)" id="Capa_1">
<line style="stroke: rgb(0,150,230); stroke-width: 2; stroke-dasharray: none; stroke-linecap: round; stroke-dashoffset: 0; stroke-linejoin: miter; stroke-miterlimit: 10; is-custom-font: none; font-file-url: none; fill: none; fill-rule: nonzero; opacity: 1;" x1="0.7719999999999994" y1="-0.772000000000002" x2="-0.7719999999999994" y2="0.772000000000002"/>
</g>
<g transform="matrix(7.6468 7.73 -7.73 7.6468 186.1829 640.3987)" id="Capa_1">
<line style="stroke: rgb(0,150,230); stroke-width: 2; stroke-dasharray: none; stroke-linecap: round; stroke-dashoffset: 0; stroke-linejoin: miter; stroke-miterlimit: 10; is-custom-font: none; font-file-url: none; fill: none; fill-rule: nonzero; opacity: 1;" x1="1.7539999999999996" y1="-1.7545000000000002" x2="-1.7539999999999996" y2="1.7545000000000002"/>
</g>
<g transform="matrix(7.6468 7.73 -7.73 7.6468 659.7088 501.6123)" id="Capa_1">
<circle style="stroke: none; stroke-width: 1; stroke-dasharray: none; stroke-linecap: butt; stroke-dashoffset: 0; stroke-linejoin: miter; stroke-miterlimit: 4; is-custom-font: none; font-file-url: none; fill: rgb(178,189,211); fill-rule: nonzero; opacity: 1;" cx="0" cy="0" r="12"/>
</g>
<g transform="matrix(7.6468 7.73 -7.73 7.6468 424.2878 500.3453)" id="Capa_1">
<path style="stroke: none; stroke-width: 1; stroke-dasharray: none; stroke-linecap: butt; stroke-dashoffset: 0; stroke-linejoin: miter; stroke-miterlimit: 4; is-custom-font: none; font-file-url: none; fill: rgb(85,96,128); fill-rule: nonzero; opacity: 1;" transform=" translate(-27.3822, -31.2938)" d="M 27.966 22.224 l -7.901 7.901 c -1.569 1.569 -2.082 3.791 -1.549 5.792 l 1.549 -1.549 c 1.167 -1.167 3.076 -1.167 4.243 0 c 1.167 1.167 1.167 3.076 0 4.243 l -1.549 1.549 c 2.001 0.533 4.222 0.02 5.792 -1.549 l 7.901 -7.901 c -1.842 -0.78 -3.571 -1.911 -5.073 -3.413 S 28.746 24.066 27.966 22.224 z" stroke-linecap="round"/>
</g>
<g transform="matrix(7.6468 7.73 -7.73 7.6468 540.1089 500.9638)" id="Capa_1">
<line style="stroke: rgb(0,150,230); stroke-width: 2; stroke-dasharray: none; stroke-linecap: round; stroke-dashoffset: 0; stroke-linejoin: miter; stroke-miterlimit: 10; is-custom-font: none; font-file-url: none; fill: none; fill-rule: nonzero; opacity: 1;" x1="0.7070000000000007" y1="-0.7070000000000007" x2="-0.7070000000000007" y2="0.7070000000000007"/>
</g>
<g transform="matrix(7.6468 7.73 -7.73 7.6468 660.4694 362.7841)" id="Capa_1">
<path style="stroke: none; stroke-width: 1; stroke-dasharray: none; stroke-linecap: butt; stroke-dashoffset: 0; stroke-linejoin: miter; stroke-miterlimit: 4; is-custom-font: none; font-file-url: none; fill: rgb(230,231,232); fill-rule: nonzero; opacity: 1;" transform=" translate(-33.6641, -6.954)" d="M 34.914 6.79 l -2.793 -2.793 c -0.25 0.22 -0.504 0.433 -0.743 0.671 s -0.451 0.493 -0.671 0.743 L 33.5 8.204 l 1.414 1.414 c 0.195 0.195 0.451 0.293 0.707 0.293 s 0.512 -0.098 0.707 -0.293 c 0.391 -0.391 0.391 -1.023 0 -1.414 L 34.914 6.79 z" stroke-linecap="round"/>
</g>
<g transform="matrix(7.6468 7.73 -7.73 7.6468 658.9651 640.4379)" id="Capa_1">
<path style="stroke: none; stroke-width: 1; stroke-dasharray: none; stroke-linecap: butt; stroke-dashoffset: 0; stroke-linejoin: miter; stroke-miterlimit: 4; is-custom-font: none; font-file-url: none; fill: rgb(230,231,232); fill-rule: nonzero; opacity: 1;" transform=" translate(-51.7209, -25.0109)" d="M 50.471 22.347 c -0.391 -0.391 -1.023 -0.391 -1.414 0 s -0.391 1.023 0 1.414 l 1.414 1.414 l 2.793 2.793 c 0.25 -0.22 0.504 -0.433 0.743 -0.671 s 0.451 -0.493 0.671 -0.743 l -2.793 -2.793 L 50.471 22.347 z" stroke-linecap="round"/>
</g>
<g transform="matrix(7.6468 7.73 -7.73 7.6468 798.5442 502.362)" id="Capa_1">
<path style="stroke: none; stroke-width: 1; stroke-dasharray: none; stroke-linecap: butt; stroke-dashoffset: 0; stroke-linejoin: miter; stroke-miterlimit: 4; is-custom-font: none; font-file-url: none; fill: rgb(230,231,232); fill-rule: nonzero; opacity: 1;" transform=" translate(-51.7209, -6.954)" d="M 49.764 9.911 c 0.256 0 0.512 -0.098 0.707 -0.293 l 1.414 -1.414 l 2.793 -2.793 c -0.22 -0.25 -0.433 -0.504 -0.671 -0.743 s -0.493 -0.451 -0.743 -0.671 L 50.471 6.79 l -1.414 1.414 c -0.391 0.391 -0.391 1.023 0 1.414 C 49.252 9.814 49.508 9.911 49.764 9.911 z" stroke-linecap="round"/>
</g>
<g transform="matrix(7.6468 7.73 -7.73 7.6468 744.7387 417.4973)" id="Capa_1">
<path style="stroke: none; stroke-width: 1; stroke-dasharray: none; stroke-linecap: butt; stroke-dashoffset: 0; stroke-linejoin: miter; stroke-miterlimit: 4; is-custom-font: none; font-file-url: none; fill: rgb(230,231,232); fill-rule: nonzero; opacity: 1;" transform=" translate(-42.692, -4.983)" d="M 42.692 2.983 c -0.552 0 -1 0.447 -1 1 v 2 c 0 0.553 0.448 1 1 1 s 1 -0.447 1 -1 v -2 C 43.692 3.43 43.245 2.983 42.692 2.983 z" stroke-linecap="round"/>
</g>
<g transform="matrix(7.6468 7.73 -7.73 7.6468 574.6792 585.7256)" id="Capa_1">
<path style="stroke: none; stroke-width: 1; stroke-dasharray: none; stroke-linecap: butt; stroke-dashoffset: 0; stroke-linejoin: miter; stroke-miterlimit: 4; is-custom-font: none; font-file-url: none; fill: rgb(230,231,232); fill-rule: nonzero; opacity: 1;" transform=" translate(-42.692, -26.983)" d="M 42.692 24.983 c -0.552 0 -1 0.447 -1 1 v 2 c 0 0.553 0.448 1 1 1 s 1 -0.447 1 -1 v -2 C 43.692 25.43 43.245 24.983 42.692 24.983 z" stroke-linecap="round"/>
</g>
<g transform="matrix(7.6468 7.73 -7.73 7.6468 743.8231 586.6411)" id="Capa_1">
<path style="stroke: none; stroke-width: 1; stroke-dasharray: none; stroke-linecap: butt; stroke-dashoffset: 0; stroke-linejoin: miter; stroke-miterlimit: 4; is-custom-font: none; font-file-url: none; fill: rgb(230,231,232); fill-rule: nonzero; opacity: 1;" transform=" translate(-53.692, -15.983)" d="M 54.692 14.983 h -2 c -0.552 0 -1 0.447 -1 1 s 0.448 1 1 1 h 2 c 0.552 0 1 -0.447 1 -1 S 55.245 14.983 54.692 14.983 z" stroke-linecap="round"/>
</g>
<g transform="matrix(7.6468 7.73 -7.73 7.6468 575.5949 416.5817)" id="Capa_1">
<path style="stroke: none; stroke-width: 1; stroke-dasharray: none; stroke-linecap: butt; stroke-dashoffset: 0; stroke-linejoin: miter; stroke-miterlimit: 4; is-custom-font: none; font-file-url: none; fill: rgb(230,231,232); fill-rule: nonzero; opacity: 1;" transform=" translate(-31.692, -15.983)" d="M 32.692 14.983 h -2 c -0.552 0 -1 0.447 -1 1 s 0.448 1 1 1 h 2 c 0.552 0 1 -0.447 1 -1 S 33.245 14.983 32.692 14.983 z" stroke-linecap="round"/>
</g>
<g transform="matrix(7.6468 7.73 -7.73 7.6468 659.7089 501.6115)" id="Capa_1">
<circle style="stroke: none; stroke-width: 1; stroke-dasharray: none; stroke-linecap: butt; stroke-dashoffset: 0; stroke-linejoin: miter; stroke-miterlimit: 4; is-custom-font: none; font-file-url: none; fill: rgb(230,231,232); fill-rule: nonzero; opacity: 1;" cx="0" cy="0" r="3"/>
</g>
<g transform="matrix(7.6468 7.73 -7.73 7.6468 362.7886 358.6501)" id="Capa_1">
<path style="stroke: none; stroke-width: 1; stroke-dasharray: none; stroke-linecap: butt; stroke-dashoffset: 0; stroke-linejoin: miter; stroke-miterlimit: 4; is-custom-font: none; font-file-url: none; fill: rgb(134,151,203); fill-rule: nonzero; opacity: 1;" transform=" translate(-14.14, -26.15)" d="M 22.186 22.347 l -9.899 9.899 l -2.829 2.829 l -4.243 -4.243 l 2.829 -2.829 l 9.899 -9.899 c 1.172 -1.172 3.071 -1.172 4.243 0 l 0 0 C 23.358 19.276 23.358 21.175 22.186 22.347 z" stroke-linecap="round"/>
</g>
<g transform="matrix(10.8729 0.0589 -0.0589 10.8729 236.4345 357.9592)" id="Capa_1">
<rect style="stroke: none; stroke-width: 1; stroke-dasharray: none; stroke-linecap: butt; stroke-dashoffset: 0; stroke-linejoin: miter; stroke-miterlimit: 4; is-custom-font: none; font-file-url: none; fill: rgb(178,189,211); fill-rule: nonzero; opacity: 1;" x="-2" y="-2" rx="0" ry="0" width="4" height="4"/>
</g>
<g transform="matrix(10.8729 0.0589 -0.0589 10.8729 277.221 499.5367)" id="Capa_1">
<rect style="stroke: none; stroke-width: 1; stroke-dasharray: none; stroke-linecap: butt; stroke-dashoffset: 0; stroke-linejoin: miter; stroke-miterlimit: 4; is-custom-font: none; font-file-url: none; fill: rgb(178,189,211); fill-rule: nonzero; opacity: 1;" x="-2.1775" y="-2" rx="0" ry="0" width="4.355" height="4"/>
</g>
<g transform="matrix(7.6468 7.73 -7.73 7.6468 361.2583 641.351)" id="Capa_1">
<path style="stroke: none; stroke-width: 1; stroke-dasharray: none; stroke-linecap: butt; stroke-dashoffset: 0; stroke-linejoin: miter; stroke-miterlimit: 4; is-custom-font: none; font-file-url: none; fill: rgb(134,151,203); fill-rule: nonzero; opacity: 1;" transform=" translate(-32.525, -44.535)" d="M 36.328 36.489 l -9.899 9.899 l -2.829 2.829 l 4.243 4.243 l 2.829 -2.829 l 9.899 -9.899 c 1.172 -1.172 1.172 -3.071 0 -4.243 l 0 0 C 39.4 35.317 37.5 35.317 36.328 36.489 z" stroke-linecap="round"/>
</g>
<g transform="matrix(0.0589 -10.8729 10.8729 0.0589 421.2689 358.9612)" id="Capa_1">
<rect style="stroke: none; stroke-width: 1; stroke-dasharray: none; stroke-linecap: butt; stroke-dashoffset: 0; stroke-linejoin: miter; stroke-miterlimit: 4; is-custom-font: none; font-file-url: none; fill: rgb(209,212,209); fill-rule: nonzero; opacity: 1;" x="-3" y="-1" rx="0" ry="0" width="6" height="2"/>
</g>
<g transform="matrix(10.8729 0.0589 -0.0589 10.8729 419.7482 641.6567)" id="Capa_1">
<rect style="stroke: none; stroke-width: 1; stroke-dasharray: none; stroke-linecap: butt; stroke-dashoffset: 0; stroke-linejoin: miter; stroke-miterlimit: 4; is-custom-font: none; font-file-url: none; fill: rgb(209,212,209); fill-rule: nonzero; opacity: 1;" x="-1" y="-3" rx="0" ry="0" width="2" height="6"/>
</g>
<g transform="matrix(10.8729 0.0589 -0.0589 10.8729 234.9047 640.6576)" id="Capa_1">
<rect style="stroke: none; stroke-width: 1; stroke-dasharray: none; stroke-linecap: butt; stroke-dashoffset: 0; stroke-linejoin: miter; stroke-miterlimit: 4; is-custom-font: none; font-file-url: none; fill: rgb(178,189,211); fill-rule: nonzero; opacity: 1;" x="-2" y="-2" rx="0" ry="0" width="4" height="4"/>
</g>
<g transform="matrix(0.0589 -10.8729 10.8729 0.0589 420.9761 413.3378)" id="Capa_1">
<rect style="stroke: none; stroke-width: 1; stroke-dasharray: none; stroke-linecap: butt; stroke-dashoffset: 0; stroke-linejoin: miter; stroke-miterlimit: 4; is-custom-font: none; font-file-url: none; fill: rgb(178,189,211); fill-rule: nonzero; opacity: 1;" x="-2" y="-2" rx="0" ry="0" width="4" height="4"/>
</g>
<g transform="matrix(10.8729 0.0589 -0.0589 10.8729 420.0362 587.2984)" id="Capa_1">
<rect style="stroke: none; stroke-width: 1; stroke-dasharray: none; stroke-linecap: butt; stroke-dashoffset: 0; stroke-linejoin: miter; stroke-miterlimit: 4; is-custom-font: none; font-file-url: none; fill: rgb(178,189,211); fill-rule: nonzero; opacity: 1;" x="-2" y="-2" rx="0" ry="0" width="4" height="4"/>
</g>
<g transform="matrix(7.6468 7.73 -7.73 7.6468 329.3859 499.8207)" id="Capa_1">
<path style="stroke: none; stroke-width: 1; stroke-dasharray: none; stroke-linecap: butt; stroke-dashoffset: 0; stroke-linejoin: miter; stroke-miterlimit: 4; is-custom-font: none; font-file-url: none; fill: rgb(134,151,203); fill-rule: nonzero; opacity: 1;" transform=" translate(-21.2097, -37.4649)" d="M 24.308 38.61 l -2.828 2.828 l -4.243 -4.243 l 2.828 -2.828 c 1.167 -1.167 3.076 -1.167 4.243 0 l 0 0 C 25.474 35.534 25.474 37.443 24.308 38.61 z" stroke-linecap="round"/>
</g>
<g transform="matrix(7.6468 7.73 -7.73 7.6468 502.0565 500.7532)" id="Capa_1">
<path style="stroke: none; stroke-width: 1; stroke-dasharray: none; stroke-linecap: butt; stroke-dashoffset: 0; stroke-linejoin: miter; stroke-miterlimit: 4; is-custom-font: none; font-file-url: none; fill: rgb(236,240,241); fill-rule: nonzero; opacity: 1;" transform=" translate(-32.439, -26.2354)" d="M 29.257 30.417 c -0.256 0 -0.512 -0.098 -0.707 -0.293 c -0.391 -0.391 -0.391 -1.023 0 -1.414 l 6.364 -6.363 c 0.391 -0.391 1.023 -0.391 1.414 0 s 0.391 1.023 0 1.414 l -6.364 6.363 C 29.769 30.32 29.513 30.417 29.257 30.417 z" stroke-linecap="round"/>
</g>
</svg>